<svg xmlns="http://www.w3.org/2000/svg" version="1.1" xmlns:xlink="http://www.w3.org/1999/xlink" xmlns:svgjs="http://svgjs.dev/svgjs" width="1000" height="244" viewBox="0 0 1000 244"><g transform="matrix(1,0,0,1,-0.6060587314376562,0.12005102055560712)"><svg viewBox="0 0 396 97" data-background-color="#010c80" preserveAspectRatio="xMidYMid meet" height="244" width="1000" xmlns="http://www.w3.org/2000/svg" xmlns:xlink="http://www.w3.org/1999/xlink"><defs></defs><g id="tight-bounds" transform="matrix(1,0,0,1,0.24000074235061675,-0.04772520079464471)"><svg viewBox="0 0 395.52 97.09545040158928" height="97.09545040158928" width="395.52"><g><svg viewBox="0 0 534.5848889644659 131.23422474688616" height="97.09545040158928" width="395.52"><g transform="matrix(1,0,0,1,137.087288964466,40.553280298025555)"><svg viewBox="0 0 397.4975999999999 50.12766415083505" height="50.12766415083505" width="397.4975999999999"><g><svg viewBox="0 0 397.4975999999999 50.12766415083505" height="50.12766415083505" width="397.4975999999999"><g><rect width="397.4975999999999" height="2.3536645519762445" x="0" y="28.87197191005531" fill="#f8fafc" opacity="1" stroke-width="0" stroke="transparent" fill-opacity="1" class="rect-o-0" data-fill-palette-color="primary" rx="1%" id="o-0" data-palette-color="#f8fafc"></rect></g><g transform="matrix(1,0,0,1,0.9887999999999693,0)"><svg viewBox="0 0 395.52 26.09933042212518" height="26.09933042212518" width="395.52"><g transform="matrix(1,0,0,1,0,0)"><svg width="395.52" viewBox="3.5 -33.5 515.2100219726562 34" height="26.09933042212518" data-palette-color="#f8fafc"><path d="M20 0.5L20 0.5Q14.9 0.5 11.2-1.6 7.5-3.7 5.5-7.33 3.5-10.95 3.5-15.6L3.5-15.6Q3.5-19.15 4.88-22.38 6.25-25.6 8.63-28.1 11-30.6 14.13-32.05 17.25-33.5 20.75-33.5L20.75-33.5Q23.25-33.5 25-33.18 26.75-32.85 28.13-32.33 29.5-31.8 30.9-31.1L30.9-31.1 31.15-22.35 30.25-22.35 27.2-28.45Q25.3-29.8 23.88-30.4 22.45-31 20.65-31L20.65-31Q17.05-31 14.23-29.2 11.4-27.4 9.78-24.28 8.15-21.15 8.15-17.1L8.15-17.1Q8.15-12.35 9.73-8.97 11.3-5.6 13.98-3.83 16.65-2.05 19.9-2.05L19.9-2.05Q22.65-2.05 24.53-2.83 26.4-3.6 27.85-4.55L27.85-4.55 30.85-9.9 31.7-9.9 31.15-1.95Q29.7-1.2 28.18-0.65 26.65-0.1 24.7 0.2 22.75 0.5 20 0.5ZM56.55 0.5L56.55 0.5Q52.8 0.5 49.87-0.9 46.95-2.3 45.25-5.23 43.55-8.15 43.55-12.8L43.55-12.8 43.55-30.2 39.55-32.2 39.55-33 52.05-33 52.05-32.2 48.05-30.2 48.05-13.55Q48.05-9.4 49.35-6.95 50.65-4.5 52.87-3.45 55.1-2.4 57.85-2.4L57.85-2.4Q60.05-2.4 61.92-3.35 63.8-4.3 64.92-6.35 66.05-8.4 66.05-11.8L66.05-11.8 66.05-30.3 61.05-32.2 61.05-33 73.5-33 73.5-32.2 69.55-30.25 69.55-12.8Q69.55-8.15 67.85-5.23 66.15-2.3 63.22-0.9 60.3 0.5 56.55 0.5ZM93.8 0L80 0 80-0.8 84-2.8 84-30.2 80-32.2 80-33 92.65-33Q95.95-33 98.57-32.18 101.2-31.35 102.7-29.73 104.2-28.1 104.2-25.6L104.2-25.6Q104.2-23.05 102.5-20.93 100.8-18.8 97.59-17.9L97.59-17.9Q102.05-17.3 104.55-15.13 107.05-12.95 107.05-9.6L107.05-9.6Q107.05-6.85 105.32-4.67 103.59-2.5 100.59-1.25 97.59 0 93.8 0L93.8 0ZM91.5-30.25L91.5-30.25 88.5-30.25 88.5-18.4 91.8-18.4Q95.34-18.4 97.34-19.93 99.34-21.45 99.34-24.2L99.34-24.2Q99.34-30.25 91.5-30.25ZM93.4-15.65L93.4-15.65 88.5-15.65 88.5-2.75 93.75-2.75Q97.7-2.75 99.95-4.55 102.2-6.35 102.2-9.2L102.2-9.2Q102.2-12.6 99.92-14.13 97.65-15.65 93.4-15.65ZM138.74 0L112.89 0 112.89-0.8 116.89-2.8 116.89-30.2 112.89-32.2 112.89-33 137.34-33 137.34-24.4 136.54-24.4 133.44-30.25 121.39-30.25 121.39-18.4 129.89-18.4 132.39-22.55 133.19-22.55 133.19-11.6 132.39-11.6 129.89-15.65 121.39-15.65 121.39-2.75 134.84-2.75 137.94-9.1 138.74-9.1 138.74 0ZM183.84 0L157.99 0 157.99-0.8 161.99-2.8 161.99-30.2 157.99-32.2 157.99-33 182.44-33 182.44-24.4 181.64-24.4 178.54-30.25 166.49-30.25 166.49-18.4 174.99-18.4 177.49-22.55 178.29-22.55 178.29-11.6 177.49-11.6 174.99-15.65 166.49-15.65 166.49-2.75 179.94-2.75 183.04-9.1 183.84-9.1 183.84 0ZM202.84 0L190.34 0 190.34-0.8 194.34-2.8 194.34-30.1 190.39-32.2 190.39-33 197.74-33 216.84-9 216.84-30.3 211.84-32.2 211.84-33 224.29-33 224.29-32.2 220.34-30.25 220.34 0.25 218.49 0.25 197.84-25.8 197.84-2.75 202.84-0.8 202.84 0ZM247.43 0.5L247.43 0.5Q242.63 0.5 238.86-1.6 235.08-3.7 232.93-7.33 230.78-10.95 230.78-15.6L230.78-15.6Q230.78-19.45 232.16-22.7 233.53-25.95 236.01-28.38 238.48-30.8 241.68-32.15 244.88-33.5 248.58-33.5L248.58-33.5Q251.18-33.5 253.03-33.2 254.88-32.9 256.33-32.35 257.78-31.8 259.23-31.1L259.23-31.1 259.48-22.85 258.68-22.85 255.43-28.45Q253.33-29.9 251.86-30.45 250.38-31 248.48-31L248.48-31Q244.63-31 241.63-29.33 238.63-27.65 236.93-24.73 235.23-21.8 235.23-18.1L235.23-18.1Q235.23-13.1 237.06-9.6 238.88-6.1 241.98-4.25 245.08-2.4 248.88-2.4L248.88-2.4Q250.53-2.4 252.06-2.6 253.58-2.8 255.23-3.45L255.23-3.45 255.23-11.7 250.78-13.7 250.78-14.5 263.18-14.5 263.18-13.7 259.73-11.55 259.73-3.7Q257.43-1.8 254.06-0.65 250.68 0.5 247.43 0.5ZM281.68 0L269.18 0 269.18-0.8 273.18-2.8 273.18-30.2 269.18-32.2 269.18-33 281.68-33 281.68-32.2 277.68-30.2 277.68-2.8 281.68-0.8 281.68 0ZM300.68 0L288.18 0 288.18-0.8 292.18-2.8 292.18-30.1 288.23-32.2 288.23-33 295.58-33 314.68-9 314.68-30.3 309.68-32.2 309.68-33 322.13-33 322.13-32.2 318.18-30.25 318.18 0.25 316.33 0.25 295.68-25.8 295.68-2.75 300.68-0.8 300.68 0ZM354.23 0L328.38 0 328.38-0.8 332.38-2.8 332.38-30.2 328.38-32.2 328.38-33 352.82-33 352.82-24.4 352.02-24.4 348.93-30.25 336.88-30.25 336.88-18.4 345.38-18.4 347.88-22.55 348.68-22.55 348.68-11.6 347.88-11.6 345.38-15.65 336.88-15.65 336.88-2.75 350.32-2.75 353.43-9.1 354.23-9.1 354.23 0ZM386.82 0L360.97 0 360.97-0.8 364.97-2.8 364.97-30.2 360.97-32.2 360.97-33 385.42-33 385.42-24.4 384.62-24.4 381.52-30.25 369.47-30.25 369.47-18.4 377.97-18.4 380.47-22.55 381.27-22.55 381.27-11.6 380.47-11.6 377.97-15.65 369.47-15.65 369.47-2.75 382.92-2.75 386.02-9.1 386.82-9.1 386.82 0ZM405.82 0L393.57 0 393.57-0.8 397.57-2.8 397.57-30.2 393.57-32.2 393.57-33 406.47-33Q411.72-33 414.75-30.83 417.77-28.65 417.77-24.85L417.77-24.85Q417.77-22.05 415.87-19.83 413.97-17.6 410.82-16.45L410.82-16.45 420.32-2.6 423.62-0.8 423.62 0 416.42 0 406.72-15.15 402.07-15.15 402.07-2.85 405.82-0.8 405.82 0ZM405.32-30.25L405.32-30.25 402.07-30.25 402.07-17.9 405.62-17.9Q408.77-17.9 410.85-19.68 412.92-21.45 412.92-24.2L412.92-24.2Q412.92-27 410.87-28.63 408.82-30.25 405.32-30.25ZM439.37 0L426.87 0 426.87-0.8 430.87-2.8 430.87-30.2 426.87-32.2 426.87-33 439.37-33 439.37-32.2 435.37-30.2 435.37-2.8 439.37-0.8 439.37 0ZM458.37 0L445.87 0 445.87-0.8 449.87-2.8 449.87-30.1 445.92-32.2 445.92-33 453.27-33 472.37-9 472.37-30.3 467.37-32.2 467.37-33 479.82-33 479.82-32.2 475.87-30.25 475.87 0.25 474.02 0.25 453.37-25.8 453.37-2.75 458.37-0.8 458.37 0ZM502.96 0.5L502.96 0.5Q498.16 0.5 494.39-1.6 490.61-3.7 488.46-7.33 486.31-10.95 486.31-15.6L486.31-15.6Q486.31-19.45 487.69-22.7 489.06-25.95 491.54-28.38 494.01-30.8 497.21-32.15 500.41-33.5 504.11-33.5L504.11-33.5Q506.71-33.5 508.56-33.2 510.41-32.9 511.86-32.35 513.31-31.8 514.76-31.1L514.76-31.1 515.01-22.85 514.21-22.85 510.96-28.45Q508.86-29.9 507.39-30.45 505.91-31 504.01-31L504.01-31Q500.16-31 497.16-29.33 494.16-27.65 492.46-24.73 490.76-21.8 490.76-18.1L490.76-18.1Q490.76-13.1 492.59-9.6 494.41-6.1 497.51-4.25 500.61-2.4 504.41-2.4L504.41-2.4Q506.06-2.4 507.59-2.6 509.11-2.8 510.76-3.45L510.76-3.45 510.76-11.7 506.31-13.7 506.31-14.5 518.71-14.5 518.71-13.7 515.26-11.55 515.26-3.7Q512.96-1.8 509.59-0.65 506.21 0.5 502.96 0.5Z" opacity="1" transform="matrix(1,0,0,1,0,0)" fill="#f8fafc" class="undefined-text-0" data-fill-palette-color="primary" id="text-0"></path></svg></g></svg></g><g transform="matrix(1,0,0,1,0,33.99827794996169)"><svg viewBox="0 0 158.29790690446774 16.129386200873363" height="16.129386200873363" width="158.29790690446774"><g transform="matrix(1,0,0,1,0,0)"><svg width="158.29790690446774" viewBox="1.25 -38.54999923706055 454.3599853515625 46.29999923706055" height="16.129386200873363" data-palette-color="#f8fafc"><path d="M15.35 0.45L15.35 0.45Q7.05 0.45 3.2-1.15L3.2-1.15Q1.25-2 1.25-2.8L1.25-2.8Q1.25-4.85 2.45-7.6 3.65-10.35 4.55-10.35L4.55-10.35Q5.05-10.35 7.93-9.25 10.8-8.15 12.78-8.15 14.75-8.15 15.38-8.4 16-8.65 16-9.38 16-10.1 15-10.53 14-10.95 12.5-11.1 11-11.25 9.28-11.7 7.55-12.15 6.05-12.85 4.55-13.55 3.55-15.18 2.55-16.8 2.55-18.68 2.55-20.55 2.65-21.48 2.75-22.4 3.48-24.08 4.2-25.75 5.53-26.8 6.85-27.85 9.63-28.7 12.4-29.55 15.85-29.55 19.3-29.55 21.63-29.33 23.95-29.1 25.28-28.75 26.6-28.4 27.45-27.95L27.45-27.95Q28.9-27.2 28.9-26.3L28.9-26.3Q28.9-24.35 27.5-21.8 26.1-19.25 25.28-19.25 24.45-19.25 21.7-20.13 18.95-21 17.65-21L17.65-21Q15.55-21 15.55-19.8L15.55-19.8Q15.55-19.05 16.98-18.68 18.4-18.3 20.4-17.9 22.4-17.5 24.43-16.78 26.45-16.05 27.88-14.15 29.3-12.25 29.3-9.35L29.3-9.35Q29.3 0.45 15.35 0.45ZM47.1-11.3L45.45-11.3Q45.45-8.05 48.55-8.05L48.55-8.05Q50.35-8.05 53.25-9.28 56.15-10.5 56.3-10.5L56.3-10.5Q57.25-10.5 58.8-7.65 60.35-4.8 60.35-3.45L60.35-3.45Q60.35-1.5 56.35-0.5 52.35 0.5 48.52 0.5 44.7 0.5 42.12-0.1 39.55-0.7 37.92-1.63 36.3-2.55 35.07-3.9 33.85-5.25 33.25-6.48 32.65-7.7 32.3-9.2L32.3-9.2Q31.8-11.4 31.8-13.75L31.8-13.75Q31.8-22.85 36.55-26.3L36.55-26.3Q38.9-28.05 41.8-28.75 44.7-29.45 48.65-29.45L48.65-29.45Q61.3-29.45 61.3-20.65L61.3-20.65Q61.3-11.3 47.1-11.3L47.1-11.3ZM45.35-18.6L45.35-18.6 45.35-15.3Q46.8-15.3 47.72-16.45 48.65-17.6 48.65-19.25L48.65-19.25Q48.65-22.25 47.1-22.25L47.1-22.25Q45.35-22.25 45.35-18.6ZM77.8-15.8L77.8-15.8 77.8-1.2Q77.8-0.65 74.97-0.33 72.15 0 69.12 0 66.09 0 65.2-0.28 64.3-0.55 64.3-1.2L64.3-1.2 64.3-25.85Q64.3-26.8 67.07-27.9 69.84-29 73.12-29 76.4-29 76.8-27.2L76.8-27.2 77.3-24.9 77.65-24.9Q78.34-26.8 81-28.13 83.65-29.45 86.3-29.45 88.95-29.45 90.02-28.6 91.09-27.75 91.09-26.43 91.09-25.1 90.9-23.05 90.7-21 89.92-18.6 89.15-16.2 87.9-16.2L87.9-16.2Q87.4-16.2 84.75-16.95 82.09-17.7 80.37-17.7 78.65-17.7 78.22-17.2 77.8-16.7 77.8-15.8ZM92.09-25.45L92.09-25.45Q92.09-25.95 93.54-26.78 94.99-27.6 97.49-28.3 99.99-29 102.39-29L102.39-29Q107.24-29 107.39-26.65L107.39-26.65 108.64-10.75 109.29-10.75 110.39-25.85Q110.49-27.1 113.84-28.05 117.19-29 119.74-29 122.29-29 123.57-28.55 124.84-28.1 125.19-27.63 125.54-27.15 125.54-26.8 125.54-26.45 123.42-21.65 121.29-16.85 114.94-1.2L114.94-1.2Q114.44 0 106.79 0L106.79 0Q104.39 0 103.64-0.28 102.89-0.55 102.64-1.2L102.64-1.2Q99.19-9.9 95.64-17.57 92.09-25.25 92.09-25.45ZM142.34-11.3L140.69-11.3Q140.69-8.05 143.79-8.05L143.79-8.05Q145.59-8.05 148.49-9.28 151.39-10.5 151.54-10.5L151.54-10.5Q152.49-10.5 154.04-7.65 155.59-4.8 155.59-3.45L155.59-3.45Q155.59-1.5 151.59-0.5 147.59 0.5 143.77 0.5 139.94 0.5 137.37-0.1 134.79-0.7 133.17-1.63 131.54-2.55 130.31-3.9 129.09-5.25 128.49-6.48 127.89-7.7 127.54-9.2L127.54-9.2Q127.04-11.4 127.04-13.75L127.04-13.75Q127.04-22.85 131.79-26.3L131.79-26.3Q134.14-28.05 137.04-28.75 139.94-29.45 143.89-29.45L143.89-29.45Q156.54-29.45 156.54-20.65L156.54-20.65Q156.54-11.3 142.34-11.3L142.34-11.3ZM140.59-18.6L140.59-18.6 140.59-15.3Q142.04-15.3 142.97-16.45 143.89-17.6 143.89-19.25L143.89-19.25Q143.89-22.25 142.34-22.25L142.34-22.25Q140.59-22.25 140.59-18.6ZM187.64-3.25L187.64-3.25 187.64-6.2 187.24-6.2Q186.99-5.95 186.49-5.55 185.99-5.15 184.14-4.5 182.29-3.85 180.01-3.85 177.74-3.85 176.01-4.58 174.29-5.3 173.29-6.53 172.29-7.75 171.74-9.8L171.74-9.8Q170.79-13.05 170.79-19L170.79-19 170.79-25.9Q170.79-26.95 173.74-27.98 176.69-29 179.94-29L179.94-29Q184.29-29 184.29-26.75L184.29-26.75 184.29-20.45Q184.29-10.45 185.89-10.45L185.89-10.45Q186.84-10.45 186.84-11.8L186.84-11.8 186.84-25.9Q186.84-26.95 189.99-27.98 193.14-29 196.74-29 200.34-29 200.34-27.05L200.34-27.05 200.34-3.4Q200.34 7.75 185.24 7.75L185.24 7.75Q177.29 7.75 174.44 6.2L174.44 6.2Q173.19 5.5 173.19 4.75L173.19 4.75Q173.19 3.55 174.19 0.73 175.19-2.1 176.04-2.1L176.04-2.1Q176.24-2.1 177.44-1.8L177.44-1.8Q181.14-0.8 183.61-0.8 186.09-0.8 186.86-1.35 187.64-1.9 187.64-3.25ZM219.23 0.45L219.23 0.45Q215.48 0.45 212.78-0.2 210.08-0.85 207.88-2.5L207.88-2.5Q203.33-5.8 203.33-14.8L203.33-14.8Q203.33-22.8 207.98-26.25L207.98-26.25Q212.33-29.45 219.23-29.45L219.23-29.45Q222.18-29.45 224.28-29.18 226.38-28.9 228.56-28 230.73-27.1 232.06-25.55 233.38-24 234.23-21.28 235.08-18.55 235.08-14.8L235.08-14.8Q235.08-7.2 230.78-3.38 226.48 0.45 219.23 0.45ZM217.48-9.3Q217.83-7.5 218.21-7.15 218.58-6.8 219.21-6.8 219.83-6.8 220.21-7.15 220.58-7.5 220.91-9.3 221.23-11.1 221.23-13.83 221.23-16.55 221.11-18.03 220.98-19.5 220.81-20.3 220.63-21.1 220.33-21.55L220.33-21.55Q219.88-22.2 219.26-22.2 218.63-22.2 218.23-21.83 217.83-21.45 217.48-19.63 217.13-17.8 217.13-14.45 217.13-11.1 217.48-9.3ZM248.13 0.45L248.13 0.45Q242.53 0.45 240.31-2.45 238.08-5.35 238.08-12.55L238.08-12.55 238.08-26.15Q238.08-27.15 241.03-28.08 243.98-29 247.23-29L247.23-29Q251.58-29 251.58-26.75L251.58-26.75 251.58-14.05Q251.58-10.25 251.88-8.53 252.18-6.8 253.38-6.8L253.38-6.8Q254.98-6.8 254.98-8.15L254.98-8.15 254.98-26.15Q254.98-27.2 258.08-28.1 261.18-29 264.83-29 268.48-29 268.48-27.05L268.48-27.05 268.48-1.3Q268.48-0.6 265.33-0.3 262.18 0 259.13 0 256.08 0 256.03-0.8L256.03-0.8 255.53-4.05 255.13-4.05Q254.68-2.25 253.33-1.1L253.33-1.1Q252.63-0.5 251.26-0.03 249.88 0.45 248.13 0.45ZM285.98-0.5L285.98-0.5Q283.23-1.2 283.23-2.6L283.23-2.6 283.23-34.3Q283.23-35.4 286.18-36.45 289.13-37.5 292.38-37.5L292.38-37.5Q296.78-37.5 296.78-35.2L296.78-35.2 296.78-29.55 296.23-26.1 296.63-26.1Q296.93-26.55 297.75-27.2 298.58-27.85 299.48-28.3L299.48-28.3Q301.68-29.45 304.33-29.45 306.98-29.45 308.5-28.78 310.03-28.1 310.95-27.03 311.88-25.95 312.43-24.3L312.43-24.3Q313.38-21.45 313.38-17.2L313.38-17.2Q313.38-10.15 311.78-6.4 310.18-2.65 306.58-1.1 302.98 0.45 296.43 0.45 289.88 0.45 285.98-0.5ZM296.73-22.25L296.73-6.9 298.28-6.9Q299.88-6.9 299.88-14.58 299.88-22.25 298.23-22.25L298.23-22.25 296.73-22.25ZM331.42-11.3L329.77-11.3Q329.77-8.05 332.87-8.05L332.87-8.05Q334.67-8.05 337.57-9.28 340.47-10.5 340.62-10.5L340.62-10.5Q341.57-10.5 343.12-7.65 344.67-4.8 344.67-3.45L344.67-3.45Q344.67-1.5 340.67-0.5 336.67 0.5 332.85 0.5 329.02 0.5 326.45-0.1 323.87-0.7 322.25-1.63 320.62-2.55 319.4-3.9 318.17-5.25 317.57-6.48 316.97-7.7 316.62-9.2L316.62-9.2Q316.12-11.4 316.12-13.75L316.12-13.75Q316.12-22.85 320.87-26.3L320.87-26.3Q323.22-28.05 326.12-28.75 329.02-29.45 332.97-29.45L332.97-29.45Q345.62-29.45 345.62-20.65L345.62-20.65Q345.62-11.3 331.42-11.3L331.42-11.3ZM329.67-18.6L329.67-18.6 329.67-15.3Q331.12-15.3 332.05-16.45 332.97-17.6 332.97-19.25L332.97-19.25Q332.97-22.25 331.42-22.25L331.42-22.25Q329.67-22.25 329.67-18.6ZM368.27-0.45Q367.37 0.4 364.17 0.4 360.97 0.4 358.87-0.03 356.77-0.45 354.87-1.7L354.87-1.7Q351.22-4.15 351.22-11.9L351.22-11.9 351.22-19.7 348.72-19.7Q348.17-19.7 347.77-20.85 347.37-22 347.37-24 347.37-26 348-27.53 348.62-29.05 349.62-29.05L349.62-29.05 351.22-29.05 351.22-35.1Q351.22-36.65 354.25-37.6 357.27-38.55 360.17-38.55L360.17-38.55Q364.72-38.55 364.72-36.3L364.72-36.3 364.72-29.05 368.42-29.05Q369.72-29.05 369.72-25.3L369.72-25.3Q369.72-22.85 369.14-21.28 368.57-19.7 367.67-19.7L367.67-19.7 364.72-19.7 364.72-10.55Q364.72-9.2 365.87-8.63 367.02-8.05 367.89-8.05 368.77-8.05 368.97-7.2 369.17-6.35 369.17-4.65L369.17-4.65Q369.17-1.3 368.27-0.45ZM392.37-0.45Q391.47 0.4 388.27 0.4 385.07 0.4 382.97-0.03 380.87-0.45 378.97-1.7L378.97-1.7Q375.32-4.15 375.32-11.9L375.32-11.9 375.32-19.7 372.82-19.7Q372.27-19.7 371.87-20.85 371.47-22 371.47-24 371.47-26 372.09-27.53 372.72-29.05 373.72-29.05L373.72-29.05 375.32-29.05 375.32-35.1Q375.32-36.65 378.34-37.6 381.37-38.55 384.27-38.55L384.27-38.55Q388.82-38.55 388.82-36.3L388.82-36.3 388.82-29.05 392.52-29.05Q393.82-29.05 393.82-25.3L393.82-25.3Q393.82-22.85 393.24-21.28 392.67-19.7 391.77-19.7L391.77-19.7 388.82-19.7 388.82-10.55Q388.82-9.2 389.97-8.63 391.12-8.05 391.99-8.05 392.87-8.05 393.07-7.2 393.27-6.35 393.27-4.65L393.27-4.65Q393.27-1.3 392.37-0.45ZM411.62-11.3L409.97-11.3Q409.97-8.05 413.07-8.05L413.07-8.05Q414.87-8.05 417.77-9.28 420.67-10.5 420.82-10.5L420.82-10.5Q421.77-10.5 423.32-7.65 424.87-4.8 424.87-3.45L424.87-3.45Q424.87-1.5 420.87-0.5 416.87 0.5 413.04 0.5 409.22 0.5 406.64-0.1 404.07-0.7 402.44-1.63 400.82-2.55 399.59-3.9 398.37-5.25 397.77-6.48 397.17-7.7 396.82-9.2L396.82-9.2Q396.32-11.4 396.32-13.75L396.32-13.75Q396.32-22.85 401.07-26.3L401.07-26.3Q403.42-28.05 406.32-28.75 409.22-29.45 413.17-29.45L413.17-29.45Q425.82-29.45 425.82-20.65L425.82-20.65Q425.82-11.3 411.62-11.3L411.62-11.3ZM409.87-18.6L409.87-18.6 409.87-15.3Q411.32-15.3 412.24-16.45 413.17-17.6 413.17-19.25L413.17-19.25Q413.17-22.25 411.62-22.25L411.62-22.25Q409.87-22.25 409.87-18.6ZM442.31-15.8L442.31-15.8 442.31-1.2Q442.31-0.65 439.49-0.33 436.66 0 433.64 0 430.61 0 429.71-0.28 428.81-0.55 428.81-1.2L428.81-1.2 428.81-25.85Q428.81-26.8 431.59-27.9 434.36-29 437.64-29 440.91-29 441.31-27.2L441.31-27.2 441.81-24.9 442.16-24.9Q442.86-26.8 445.51-28.13 448.16-29.45 450.81-29.45 453.46-29.45 454.54-28.6 455.61-27.75 455.61-26.43 455.61-25.1 455.41-23.05 455.21-21 454.44-18.6 453.66-16.2 452.41-16.2L452.41-16.2Q451.91-16.2 449.26-16.95 446.61-17.7 444.89-17.7 443.16-17.7 442.74-17.2 442.31-16.7 442.31-15.8Z" opacity="1" transform="matrix(1,0,0,1,0,0)" fill="#f8fafc" class="undefined-text-1" data-fill-palette-color="secondary" id="text-1"></path></svg></g></svg></g></svg></g></svg></g><g><svg viewBox="0 0 130.9258634357324 131.23422474688616" height="131.23422474688616" width="130.9258634357324"><g><svg xmlns="http://www.w3.org/2000/svg" xmlns:xlink="http://www.w3.org/1999/xlink" version="1.1" x="0" y="0" viewBox="1.8034263849258423 1.7935094833374023 60.264556884765625 60.406494140625" style="enable-background:new 0 0 64 64;" xml:space="preserve" height="131.23422474688616" width="130.9258634357324" class="icon-icon-0" data-fill-palette-color="accent" id="icon-0"><g fill="#f8fafc" data-fill-palette-color="accent"><path d="M53.9 10C43.3-0.6 26.3-1 15.3 9.2 15 9.5 14.8 9.7 14.5 10c-0.3 0.3-0.5 0.6-0.8 0.8l-0.4 0.5 39.4 39.5c0 0 1.7-2 2-2.3C64.8 37.6 64.5 20.6 53.9 10zM52.2 32c1.8 3.1 3 6.2 3.6 8.9-0.9 1.7-1.9 3.2-3.2 4.7l-7.9-7.9C47 35.5 49.6 33.6 52.2 32zM53.4 27.3c-1.8-2.7-3.9-5.4-6.3-7.9l5.5-5.5c2.8 3.3 4.7 7.2 5.5 11.5C56.6 25.8 55 26.5 53.4 27.3zM50.1 11.3l-5.5 5.5c-2.6-2.5-5.4-4.7-8.2-6.5 0.8-1.6 1.4-3.1 1.9-4.5C42.7 6.5 46.7 8.4 50.1 11.3zM42.1 19.3l-7.9 7.9-5.7-5.7c2.4-2.5 4.5-5.2 6.2-8.1C37.2 15.1 39.7 17.1 42.1 19.3zM28.4 6.1c2.1-0.5 4.2-0.7 6.3-0.7-0.4 1-0.8 2-1.3 3.1C31.6 7.5 30 6.7 28.4 6.1zM44.6 21.8c2.2 2.3 4.1 4.7 5.7 7.2-2.9 1.7-5.6 3.8-8.1 6.2l-5.5-5.5L44.6 21.8zM57.8 35.5c-0.7-1.7-1.5-3.5-2.5-5.2 1.1-0.5 2.1-1 3.2-1.4C58.6 31.2 58.3 33.4 57.8 35.5zM31.6 11.6c-1.6 2.6-3.5 5.1-5.6 7.4l-7.6-7.6c1.4-1.2 3-2.3 4.6-3.2C25.6 8.7 28.6 9.9 31.6 11.6z" fill="#f8fafc" data-fill-palette-color="accent"></path><path d="M21.4 25.9L10.1 14.6c-0.6 0.6-1.2 1.2-1.9 1.8-0.6 0.6-0.7 1.2-0.4 2.1 2.3 5.1 1.6 10.1-2.3 15.4-0.2 0.2-0.4 0.5-0.6 0.7-0.6 0.6-1.3 1-1.9 1.5l-0.2 0.1c-0.2 0.1-0.3 0.2-0.5 0.4-0.5 0.5-0.6 1-0.4 1.7 0.3 1.2 0.6 2.3 0.9 3.4l0.1 0.2c0.2 0.8 0.4 1.5 0.6 2.3 0.2 0.8 0.7 1.3 1.6 1.3 3.2 0.2 5.9 1.6 8.7 4.3 2.7 2.6 4.1 5.7 4.2 9.2 0 0.7 0.4 1.2 1.2 1.4 2.3 0.7 4.2 1.2 6.1 1.7 0.2 0.1 0.5 0.1 0.9 0.1 0.2-0.1 0.5-0.2 0.6-0.3 0.1-0.1 0.2-0.3 0.4-0.5 0.4-0.7 0.9-1.4 1.6-2 1.9-1.8 4.8-3.2 8-3.7 3.2-0.5 6.2-0.1 8.3 1.2 0.3 0.2 0.8 0.4 1.3 0.3l0 0c0.4-0.1 0.7-0.3 1.1-0.6 0.8-0.8 1.5-1.5 2-2 0.1-0.1 0.2-0.2 0.4-0.3L38.3 42.8 38.2 43c-1.7 1.6-3.7 2.7-6 3.1-3.9 0.8-7.8-0.4-10.6-3.1-2.4-2.3-3.7-5.4-3.7-8.7C17.9 31.2 19.1 28.2 21.4 25.9z" fill="#f8fafc" data-fill-palette-color="accent"></path></g></svg></g></svg></g></svg></g></svg><rect width="395.52" height="97.09545040158928" fill="none" stroke="none" visibility="hidden"></rect></g></svg></g></svg>